<svg xmlns="http://www.w3.org/2000/svg" viewBox="0 0 400 380" role="img" aria-labelledby="title"><title id="title">Space Explorer Figure illustration</title><rect width="400" height="380" fill="#f3eee5"/><circle cx="200" cy="185" r="145" fill="#e8e1d5"/><ellipse cx="200" cy="337" rx="118" ry="11" fill="#d8d0c3"/><g stroke="#263448" stroke-width="5" stroke-linejoin="round"><path d="M166 219l-12 94h34l12-62 13 62h34l-14-94" fill="#f7f4e9"/><path d="M157 140l-28 73 23 11 23-49h50l22 49 23-11-28-73z" fill="#f7f4e9"/><rect x="165" y="133" width="70" height="102" rx="17" fill="#f7f4e9"/><rect x="159" y="67" width="82" height="78" rx="35" fill="#f7f4e9"/><rect x="169" y="79" width="62" height="48" rx="22" fill="#cba457"/></g><path d="m180 91 27-4" stroke="#fff1c1" stroke-width="7" stroke-linecap="round"/><rect x="178" y="159" width="44" height="40" rx="6" fill="#85a4be"/><circle cx="190" cy="173" r="5" fill="#bc493b"/><path d="M187 187h26M174 272h20m14 0h27" stroke="#536173" stroke-width="5"/><rect x="139" y="316" width="123" height="13" rx="6" fill="#263448"/></svg>
