<svg xmlns="http://www.w3.org/2000/svg" viewBox="0 0 400 380" role="img" aria-labelledby="title"><title id="title">Catan Board Game illustration</title><rect width="400" height="380" fill="#f3eee5"/><circle cx="200" cy="185" r="145" fill="#e8e1d5"/><ellipse cx="200" cy="337" rx="118" ry="11" fill="#d8d0c3"/><rect x="64" y="92" width="272" height="225" rx="12" fill="#293848" opacity=".12"/><rect x="64" y="80" width="272" height="225" rx="10" fill="#bb5942"/><text x="200" y="119" text-anchor="middle" font-family="Georgia,serif" font-size="28" font-weight="bold" fill="#ffe0a0">CATAN</text><path d="M115 136l22 12v24l-22 12-22-12v-24z" fill="#cfae62" stroke="#f5dfb0" stroke-width="3"/><path d="M161 136l22 12v24l-22 12-22-12v-24z" fill="#8f9d68" stroke="#f5dfb0" stroke-width="3"/><path d="M207 136l22 12v24l-22 12-22-12v-24z" fill="#b98d61" stroke="#f5dfb0" stroke-width="3"/><path d="M253 136l22 12v24l-22 12-22-12v-24z" fill="#b5c4a0" stroke="#f5dfb0" stroke-width="3"/><path d="M125 179l22 12v24l-22 12-22-12v-24z" fill="#8f9d68" stroke="#f5dfb0" stroke-width="3"/><path d="M171 179l22 12v24l-22 12-22-12v-24z" fill="#b98d61" stroke="#f5dfb0" stroke-width="3"/><path d="M217 179l22 12v24l-22 12-22-12v-24z" fill="#b5c4a0" stroke="#f5dfb0" stroke-width="3"/><path d="M263 179l22 12v24l-22 12-22-12v-24z" fill="#cfae62" stroke="#f5dfb0" stroke-width="3"/><path d="M115 222l22 12v24l-22 12-22-12v-24z" fill="#b98d61" stroke="#f5dfb0" stroke-width="3"/><path d="M161 222l22 12v24l-22 12-22-12v-24z" fill="#b5c4a0" stroke="#f5dfb0" stroke-width="3"/><path d="M207 222l22 12v24l-22 12-22-12v-24z" fill="#cfae62" stroke="#f5dfb0" stroke-width="3"/><path d="M253 222l22 12v24l-22 12-22-12v-24z" fill="#8f9d68" stroke="#f5dfb0" stroke-width="3"/></svg>
