<svg xmlns="http://www.w3.org/2000/svg" viewBox="0 0 400 380" role="img" aria-labelledby="title"><title id="title">LEGO Classic Box illustration</title><rect width="400" height="380" fill="#f3eee5"/><circle cx="200" cy="185" r="145" fill="#e8e1d5"/><ellipse cx="200" cy="337" rx="118" ry="11" fill="#d8d0c3"/><g fill="#c75044" stroke="#263448" stroke-opacity=".2" stroke-width="3"><rect x="91" y="254" width="120" height="47" rx="5"/><rect x="96" y="244" width="20" height="12" rx="4"/><rect x="126" y="244" width="20" height="12" rx="4"/><rect x="156" y="244" width="20" height="12" rx="4"/><rect x="186" y="244" width="20" height="12" rx="4"/></g><g fill="#d5af4f" stroke="#263448" stroke-opacity=".2" stroke-width="3"><rect x="219" y="254" width="90" height="47" rx="5"/><rect x="224" y="244" width="20" height="12" rx="4"/><rect x="254" y="244" width="20" height="12" rx="4"/><rect x="284" y="244" width="20" height="12" rx="4"/></g><g fill="#538baf" stroke="#263448" stroke-opacity=".2" stroke-width="3"><rect x="119" y="195" width="90" height="47" rx="5"/><rect x="124" y="185" width="20" height="12" rx="4"/><rect x="154" y="185" width="20" height="12" rx="4"/><rect x="184" y="185" width="20" height="12" rx="4"/></g><g fill="#63997a" stroke="#263448" stroke-opacity=".2" stroke-width="3"><rect x="217" y="195" width="60" height="47" rx="5"/><rect x="222" y="185" width="20" height="12" rx="4"/><rect x="252" y="185" width="20" height="12" rx="4"/></g><g fill="#d5af4f" stroke="#263448" stroke-opacity=".2" stroke-width="3"><rect x="147" y="136" width="90" height="47" rx="5"/><rect x="152" y="126" width="20" height="12" rx="4"/><rect x="182" y="126" width="20" height="12" rx="4"/><rect x="212" y="126" width="20" height="12" rx="4"/></g><g fill="#c75044" stroke="#263448" stroke-opacity=".2" stroke-width="3"><rect x="160" y="77" width="60" height="47" rx="5"/><rect x="165" y="67" width="20" height="12" rx="4"/><rect x="195" y="67" width="20" height="12" rx="4"/></g></svg>
